<svg width="2000" height="1200" viewBox="0 0 1400 900" xmlns="http://www.w3.org/2000/svg">
  <defs>
    <linearGradient id="bg" x1="0" y1="0" x2="0" y2="1">
      <stop offset="0%" stop-color="#0a0a0c"/>
      <stop offset="55%" stop-color="#111014"/>
      <stop offset="100%" stop-color="#060607"/>
    </linearGradient>
    <radialGradient id="glow" cx="50%" cy="35%" r="65%">
      <stop offset="0%" stop-color="#c9a25c" stop-opacity="0.22"/>
      <stop offset="100%" stop-color="#c9a25c" stop-opacity="0"/>
    </radialGradient>
    
    <filter id="g1">
      <feTurbulence type="fractalNoise" baseFrequency="0.85" numOctaves="2" stitchTiles="stitch" result="noise"/>
      <feColorMatrix in="noise" type="matrix" values="0 0 0 0 1  0 0 0 0 1  0 0 0 0 1  0 0 0 0.02 0"/>
    </filter>
  
  </defs>
  <rect width="1400" height="900" fill="url(#bg)"/>
  <rect width="1400" height="900" fill="url(#glow)"/>
  
  
    <rect x="540" y="140" width="240" height="520" fill="#050506" stroke="#c9a25c" stroke-width="1" opacity="0.5"/>
    <rect x="560" y="160" width="18" height="14" fill="#c9a25c" opacity="0.06"/><rect x="600" y="160" width="18" height="14" fill="#c9a25c" opacity="0.06"/><rect x="640" y="160" width="18" height="14" fill="#c9a25c" opacity="0.06"/><rect x="680" y="160" width="18" height="14" fill="#c9a25c" opacity="0.06"/><rect x="720" y="160" width="18" height="14" fill="#c9a25c" opacity="0.06"/><rect x="560" y="186" width="18" height="14" fill="#c9a25c" opacity="0.1"/><rect x="600" y="186" width="18" height="14" fill="#c9a25c" opacity="0.1"/><rect x="640" y="186" width="18" height="14" fill="#c9a25c" opacity="0.1"/><rect x="680" y="186" width="18" height="14" fill="#c9a25c" opacity="0.1"/><rect x="720" y="186" width="18" height="14" fill="#c9a25c" opacity="0.1"/><rect x="560" y="212" width="18" height="14" fill="#c9a25c" opacity="0.14"/><rect x="600" y="212" width="18" height="14" fill="#c9a25c" opacity="0.14"/><rect x="640" y="212" width="18" height="14" fill="#c9a25c" opacity="0.14"/><rect x="680" y="212" width="18" height="14" fill="#c9a25c" opacity="0.14"/><rect x="720" y="212" width="18" height="14" fill="#c9a25c" opacity="0.14"/><rect x="560" y="238" width="18" height="14" fill="#c9a25c" opacity="0.06"/><rect x="600" y="238" width="18" height="14" fill="#c9a25c" opacity="0.06"/><rect x="640" y="238" width="18" height="14" fill="#c9a25c" opacity="0.06"/><rect x="680" y="238" width="18" height="14" fill="#c9a25c" opacity="0.06"/><rect x="720" y="238" width="18" height="14" fill="#c9a25c" opacity="0.06"/><rect x="560" y="264" width="18" height="14" fill="#c9a25c" opacity="0.1"/><rect x="600" y="264" width="18" height="14" fill="#c9a25c" opacity="0.1"/><rect x="640" y="264" width="18" height="14" fill="#c9a25c" opacity="0.1"/><rect x="680" y="264" width="18" height="14" fill="#c9a25c" opacity="0.1"/><rect x="720" y="264" width="18" height="14" fill="#c9a25c" opacity="0.1"/><rect x="560" y="290" width="18" height="14" fill="#c9a25c" opacity="0.14"/><rect x="600" y="290" width="18" height="14" fill="#c9a25c" opacity="0.14"/><rect x="640" y="290" width="18" height="14" fill="#c9a25c" opacity="0.14"/><rect x="680" y="290" width="18" height="14" fill="#c9a25c" opacity="0.14"/><rect x="720" y="290" width="18" height="14" fill="#c9a25c" opacity="0.14"/><rect x="560" y="316" width="18" height="14" fill="#c9a25c" opacity="0.06"/><rect x="600" y="316" width="18" height="14" fill="#c9a25c" opacity="0.06"/><rect x="640" y="316" width="18" height="14" fill="#c9a25c" opacity="0.06"/><rect x="680" y="316" width="18" height="14" fill="#c9a25c" opacity="0.06"/><rect x="720" y="316" width="18" height="14" fill="#c9a25c" opacity="0.06"/><rect x="560" y="342" width="18" height="14" fill="#c9a25c" opacity="0.1"/><rect x="600" y="342" width="18" height="14" fill="#c9a25c" opacity="0.1"/><rect x="640" y="342" width="18" height="14" fill="#c9a25c" opacity="0.1"/><rect x="680" y="342" width="18" height="14" fill="#c9a25c" opacity="0.1"/><rect x="720" y="342" width="18" height="14" fill="#c9a25c" opacity="0.1"/><rect x="560" y="368" width="18" height="14" fill="#c9a25c" opacity="0.14"/><rect x="600" y="368" width="18" height="14" fill="#c9a25c" opacity="0.14"/><rect x="640" y="368" width="18" height="14" fill="#c9a25c" opacity="0.14"/><rect x="680" y="368" width="18" height="14" fill="#c9a25c" opacity="0.14"/><rect x="720" y="368" width="18" height="14" fill="#c9a25c" opacity="0.14"/><rect x="560" y="394" width="18" height="14" fill="#c9a25c" opacity="0.06"/><rect x="600" y="394" width="18" height="14" fill="#c9a25c" opacity="0.06"/><rect x="640" y="394" width="18" height="14" fill="#c9a25c" opacity="0.06"/><rect x="680" y="394" width="18" height="14" fill="#c9a25c" opacity="0.06"/><rect x="720" y="394" width="18" height="14" fill="#c9a25c" opacity="0.06"/><rect x="560" y="420" width="18" height="14" fill="#c9a25c" opacity="0.1"/><rect x="600" y="420" width="18" height="14" fill="#c9a25c" opacity="0.1"/><rect x="640" y="420" width="18" height="14" fill="#c9a25c" opacity="0.1"/><rect x="680" y="420" width="18" height="14" fill="#c9a25c" opacity="0.1"/><rect x="720" y="420" width="18" height="14" fill="#c9a25c" opacity="0.1"/><rect x="560" y="446" width="18" height="14" fill="#c9a25c" opacity="0.14"/><rect x="600" y="446" width="18" height="14" fill="#c9a25c" opacity="0.14"/><rect x="640" y="446" width="18" height="14" fill="#c9a25c" opacity="0.14"/><rect x="680" y="446" width="18" height="14" fill="#c9a25c" opacity="0.14"/><rect x="720" y="446" width="18" height="14" fill="#c9a25c" opacity="0.14"/><rect x="560" y="472" width="18" height="14" fill="#c9a25c" opacity="0.06"/><rect x="600" y="472" width="18" height="14" fill="#c9a25c" opacity="0.06"/><rect x="640" y="472" width="18" height="14" fill="#c9a25c" opacity="0.06"/><rect x="680" y="472" width="18" height="14" fill="#c9a25c" opacity="0.06"/><rect x="720" y="472" width="18" height="14" fill="#c9a25c" opacity="0.06"/><rect x="560" y="498" width="18" height="14" fill="#c9a25c" opacity="0.1"/><rect x="600" y="498" width="18" height="14" fill="#c9a25c" opacity="0.1"/><rect x="640" y="498" width="18" height="14" fill="#c9a25c" opacity="0.1"/><rect x="680" y="498" width="18" height="14" fill="#c9a25c" opacity="0.1"/><rect x="720" y="498" width="18" height="14" fill="#c9a25c" opacity="0.1"/>
    <line x1="0" y1="660" x2="1400" y2="660" stroke="#c9a25c" stroke-width="1" opacity="0.5"/>
  
  <rect width="1400" height="900" filter="url(#g1)"/>
</svg>